<?xml version="1.0" encoding="utf-8"?>
<!-- Generator: Adobe Illustrator 26.0.3, SVG Export Plug-In . SVG Version: 6.00 Build 0)  -->
<svg version="1.1" id="Layer_1" xmlns="http://www.w3.org/2000/svg" xmlns:xlink="http://www.w3.org/1999/xlink" x="0px" y="0px"
	 viewBox="0 0 194.1 194.1" style="enable-background:new 0 0 194.1 194.1;" xml:space="preserve">
<style type="text/css">
	.st0{clip-path:url(#SVGID_00000164472447550112461900000015412985333323905713_);}
	.st1{fill:#2E2D2C;}
</style>
<g id="Group_1216" transform="translate(-2843.481 -6197.846)">
	<g id="Group_666" transform="translate(2843.481 6197.846)">
		<g>
			<defs>
				<rect id="SVGID_1_" x="14.4" y="85.9" width="165.4" height="22.4"/>
			</defs>
			<clipPath id="SVGID_00000063599000530745526470000011757634135409675438_">
				<use xlink:href="#SVGID_1_"  style="overflow:visible;"/>
			</clipPath>
			<g id="Group_665" style="clip-path:url(#SVGID_00000063599000530745526470000011757634135409675438_);">
				<path id="Path_192" class="st1" d="M172.4,99.2L172.4,99.2c-0.2-0.6-0.5-1.2-0.8-1.8c-0.3-0.5-0.7-0.9-1.2-1.3
					c-0.9-0.7-1.9-1.2-2.9-1.4c-0.5-0.1-0.9-0.2-1.4-0.2h-8.9c-0.5,0-0.9-0.1-1.3-0.5c-0.3-0.4-0.5-0.9-0.4-1.3c0-0.5,0.1-1,0.5-1.4
					c0.3-0.3,0.8-0.5,1.3-0.5h13.6v-5h-13.6c-0.7,0-1.5,0.1-2.2,0.4c-1.7,0.5-3.1,1.7-3.9,3.3c-0.9,2-0.9,4.3,0,6.4
					c0.4,0.8,1,1.5,1.7,2.1c0.7,0.5,1.4,0.9,2.2,1.2c0.7,0.2,1.4,0.3,2.2,0.4h8.8c0.3,0,0.5,0,0.7,0.1c0.2,0.1,0.4,0.2,0.5,0.4
					c0.2,0.2,0.3,0.4,0.3,0.6c0.1,0.2,0.1,0.5,0.1,0.8c0,0.5-0.1,1-0.5,1.3c-0.3,0.3-0.8,0.5-1.3,0.5h-15.4v5H166
					c0.5,0,1-0.1,1.4-0.2c0.5-0.1,1-0.3,1.5-0.5c0.5-0.2,1-0.5,1.4-0.9c0.5-0.4,0.9-0.8,1.2-1.3c0.4-0.5,0.6-1.1,0.8-1.8
					c0.2-0.7,0.3-1.5,0.3-2.2C172.7,100.7,172.6,99.9,172.4,99.2"/>
				<path id="Path_193" class="st1" d="M59.1,88.6L59.1,88.6c-0.9-0.8-1.9-1.5-3-2c-1.2-0.5-2.5-0.7-3.7-0.7h-5.2
					c-1.3,0-2.6,0.2-3.7,0.7c-1.1,0.5-2.1,1.1-3,2c-0.9,0.9-1.5,1.9-2,3c-0.5,1.2-0.7,2.5-0.7,3.8v3.4c0,1.3,0.2,2.6,0.7,3.8
					c0.5,1.1,1.1,2.1,2,3c0.9,0.9,1.9,1.5,3,2c1.2,0.5,2.5,0.7,3.7,0.7h5.2c1.3,0,2.6-0.2,3.7-0.7c1.1-0.4,2.1-1.1,3-2
					c0.9-0.9,1.5-1.9,2-3c0.5-1.2,0.7-2.5,0.7-3.8v-3.4c0-1.3-0.2-2.6-0.7-3.8C60.7,90.5,60,89.4,59.1,88.6 M47.2,90.9h5.2
					c0.6,0,1.2,0.1,1.8,0.3c1,0.4,1.9,1.2,2.3,2.3c0.2,0.6,0.3,1.2,0.3,1.8v3.4c0,0.6-0.1,1.3-0.3,1.8c-0.2,0.5-0.5,1-0.9,1.4
					c-0.4,0.4-0.9,0.7-1.4,0.9c-0.6,0.2-1.2,0.3-1.8,0.3h-5.2c-0.6,0-1.2-0.1-1.8-0.3c-0.5-0.2-1-0.5-1.4-0.9
					c-0.4-0.4-0.7-0.9-0.9-1.4c-0.2-0.6-0.3-1.2-0.3-1.8v-3.4c0-0.6,0.1-1.3,0.3-1.8c0.2-0.5,0.5-1,0.9-1.4c0.4-0.4,0.9-0.7,1.4-0.9
					C46,91,46.6,90.9,47.2,90.9"/>
				<path id="Path_194" class="st1" d="M86.3,88.6c-0.9-0.8-1.9-1.5-3-2c-1.2-0.5-2.5-0.7-3.7-0.7h-5.2c-1.3,0-2.6,0.2-3.7,0.7
					c-1.1,0.4-2.1,1.1-3,2c-0.9,0.9-1.5,1.9-2,3c-0.5,1.2-0.7,2.5-0.7,3.8v3.4c0,1.3,0.2,2.6,0.7,3.8c0.5,1.1,1.1,2.1,2,3
					c0.9,0.9,1.9,1.5,3,2c1.2,0.5,2.5,0.7,3.7,0.7h5.2c1.3,0,2.6-0.2,3.7-0.7c2.3-0.9,4.1-2.7,5-5c0.5-1.2,0.7-2.5,0.7-3.8v-3.4
					c0-1.3-0.2-2.6-0.7-3.8C87.8,90.5,87.2,89.4,86.3,88.6 M74.4,90.9h5.2c0.6,0,1.2,0.1,1.8,0.3c1,0.4,1.9,1.2,2.3,2.3
					c0.2,0.6,0.3,1.2,0.3,1.8v3.4c0,0.6-0.1,1.3-0.3,1.8c-0.2,0.5-0.5,1-0.9,1.4c-0.4,0.4-0.9,0.7-1.4,0.9c-0.6,0.2-1.2,0.3-1.8,0.3
					h-5.2c-0.6,0-1.2-0.1-1.8-0.3c-0.5-0.2-1-0.5-1.4-0.9c-0.4-0.4-0.7-0.9-0.9-1.4c-0.2-0.6-0.3-1.2-0.3-1.8v-3.4
					c0-0.6,0.1-1.3,0.3-1.8c0.2-0.5,0.5-1,0.9-1.4c0.4-0.4,0.9-0.7,1.4-0.9C73.1,91,73.8,90.9,74.4,90.9"/>
				<path id="Path_195" class="st1" d="M112,88.6L112,88.6c-0.9-0.8-1.9-1.5-3-2c-1.2-0.5-2.5-0.7-3.7-0.7H94.9
					c-0.3,0-0.7,0.1-1,0.2c-0.3,0.1-0.6,0.3-0.8,0.5c-0.2,0.2-0.4,0.5-0.5,0.8c-0.1,0.3-0.2,0.6-0.2,1v17.3c0,0.3,0.1,0.7,0.2,1
					c0.1,0.3,0.3,0.6,0.5,0.8c0.2,0.2,0.5,0.4,0.8,0.5c0.3,0.1,0.7,0.2,1,0.2h10.4c1.3,0,2.6-0.2,3.7-0.7c1.1-0.5,2.1-1.1,3-2
					c0.9-0.9,1.5-1.9,2-3c0.5-1.2,0.7-2.5,0.7-3.8v-3.5c0-1.3-0.2-2.6-0.7-3.8C113.5,90.5,112.8,89.5,112,88.6 M105.2,103.2h-7.9
					V90.9h7.9c0.6,0,1.2,0.1,1.8,0.3c0.5,0.2,1,0.5,1.4,0.9c0.4,0.4,0.7,0.9,0.9,1.4c0.2,0.6,0.3,1.2,0.3,1.8v3.5
					c0,0.6-0.1,1.3-0.3,1.8c-0.2,0.5-0.5,1-0.9,1.4c-0.4,0.4-0.9,0.7-1.4,0.9C106.5,103.1,105.8,103.2,105.2,103.2"/>
				<rect id="Rectangle_320" x="118.1" y="85.9" class="st1" width="5" height="22.3"/>
				<path id="Path_196" class="st1" d="M132.2,86.6c-2.3,0.9-4.1,2.7-5,5c-0.5,1.2-0.7,2.5-0.7,3.8v3.4c0,1.3,0.2,2.6,0.7,3.8
					c0.9,2.3,2.7,4.1,5,5c1.2,0.5,2.5,0.7,3.7,0.7h10.9v-5h-10.9c-0.6,0-1.2-0.1-1.8-0.3c-0.5-0.2-1-0.5-1.4-0.9
					c-0.4-0.4-0.7-0.9-0.9-1.4c-0.2-0.6-0.3-1.2-0.3-1.8v-3.4c0-0.6,0.1-1.3,0.3-1.8c0.2-0.5,0.5-1,0.9-1.4c0.4-0.4,0.9-0.7,1.4-0.9
					c0.6-0.2,1.2-0.3,1.8-0.3h10.9v-5h-10.9C134.7,85.9,133.4,86.2,132.2,86.6"/>
				<path id="Path_197" class="st1" d="M19,103.8L19,103.8c-0.2-0.2-0.4-0.3-0.7-0.4c-0.3-0.1-0.5-0.2-0.8-0.2h-1.1
					c-0.3,0-0.6,0.1-0.8,0.2c-0.5,0.2-0.9,0.6-1.1,1.1c-0.1,0.3-0.2,0.5-0.2,0.8v0.9c0,0.3,0.1,0.6,0.2,0.8c0.1,0.2,0.2,0.5,0.4,0.7
					c0.2,0.2,0.4,0.3,0.7,0.4c0.3,0.1,0.5,0.2,0.8,0.2h1.1c0.3,0,0.6-0.1,0.8-0.2c0.2-0.1,0.5-0.2,0.7-0.4c0.2-0.2,0.3-0.4,0.4-0.7
					c0.1-0.3,0.2-0.5,0.2-0.8v-0.9c0-0.3,0-0.6-0.2-0.8C19.4,104.2,19.2,104,19,103.8"/>
				<path id="Path_198" class="st1" d="M176.4,87.2h1.2c0.3,0,0.6,0.2,0.7,0.6c0,0,0,0,0,0c0,0.3-0.1,0.5-0.4,0.6v0
					c0.2,0.1,0.3,0.3,0.3,0.5c0,0.2,0,0.4,0.1,0.5h-0.5c0-0.2-0.1-0.4-0.1-0.5c0-0.2-0.1-0.3-0.4-0.3h-0.5v0.9h-0.5L176.4,87.2
					L176.4,87.2z M176.9,88.3h0.5c0.2,0,0.3-0.1,0.3-0.3c0-0.2-0.1-0.3-0.3-0.3h-0.5V88.3z"/>
				<path id="Path_199" class="st1" d="M177.3,90.9c-1.4,0-2.5-1.1-2.5-2.5c0-1.4,1.1-2.5,2.5-2.5c1.4,0,2.5,1.1,2.5,2.5
					c0,0,0,0,0,0C179.8,89.8,178.7,90.9,177.3,90.9 M177.3,86.5c-1.1,0-2,0.9-2,2c0,1.1,0.9,2,2,2c1.1,0,2-0.9,2-2
					C179.3,87.3,178.4,86.5,177.3,86.5"/>
				<path id="Path_200" class="st1" d="M19.5,92.4c0-0.8,0.6-1.4,1.4-1.4c0,0,0,0,0,0h13.8v-5.1H21c-3.7,0-6.6,3-6.6,6.6v2.2
					c0,3.7,3,6.6,6.6,6.6c0,0,0,0,0,0h7.2v-5.1h-7.3c-0.8,0-1.4-0.6-1.4-1.4c0,0,0,0,0,0V92.4z"/>
			</g>
		</g>
	</g>
</g>
</svg>
